<?xml version="1.0" encoding="utf-8"?>
<!-- Generator: Adobe Illustrator 16.0.0, SVG Export Plug-In . SVG Version: 6.00 Build 0)  -->
<!DOCTYPE svg PUBLIC "-//W3C//DTD SVG 1.1//EN" "http://www.w3.org/Graphics/SVG/1.1/DTD/svg11.dtd">
<svg version="1.1" id="Layer_1" xmlns="http://www.w3.org/2000/svg" xmlns:xlink="http://www.w3.org/1999/xlink" x="0px" y="0px"
	 width="1000px" height="1000px" viewBox="0 0 1000 1000" enable-background="new 0 0 1000 1000" xml:space="preserve">
<rect x="113" y="253" fill="#9DF4F2" width="774" height="492"/>
<g>
	<path fill="#146F84" d="M337.859,489.091l95.903-52.624v37.87l-74.755,37.377l74.755,35.41v40.82l-95.903-56.066V489.091z"/>
	<path fill="#146F84" d="M495.116,414.828h25.083l-41.804,173.117h-24.59L495.116,414.828z"/>
	<path fill="#146F84" d="M539.993,547.125l74.755-35.41l-74.755-37.377v-37.87l95.902,52.624v42.788l-95.902,56.066V547.125z"/>
</g>
<g>
	<path fill="#DBDBDB" d="M113.402,756c0,0,4.628,65,54.379,65s651.391,0,651.391,0s68.263-3,68.263-65H113.402z"/>
	<rect x="113" y="745" fill="#AEAFAF" width="774" height="11"/>
</g>
<g>
	<path fill="#DBDBDB" d="M113.402,242c0,0,4.628-65,54.379-65s651.391,0,651.391,0s68.263,3,68.263,65H113.402z"/>
	<circle fill="#EA5959" cx="163.539" cy="214.041" r="8.099"/>
	<circle fill="#B1E85B" cx="190.15" cy="214.041" r="8.099"/>
	<circle fill="#5CA7E5" cx="214.447" cy="214.041" r="8.099"/>
	<rect x="113" y="242" fill="#AEAFAF" width="774" height="11"/>
</g>
<path opacity="0.1" fill="#939393" d="M404,177l192,644h219c0,0,72-2,72-65s0-514,0-514s7-65-86-65S404,177,404,177z"/>
</svg>
